<?xml version="1.0" encoding="UTF-8"?>
<svg version="1.1" xmlns="http://www.w3.org/2000/svg" width="2048" height="2048">
<path d="M0 0 C1.26263672 -0.00386719 2.52527344 -0.00773438 3.82617188 -0.01171875 C9.74722762 -0.00553488 15.51125763 0.14711702 21.38208008 0.91113281 C25.08489321 1.29641186 28.7832855 1.13803988 32.5 1.0625 C40.39421266 0.98565235 48.19524231 1.35035385 56.0625 2 C57.53601929 2.11782837 57.53601929 2.11782837 59.03930664 2.23803711 C72.91104476 3.46440479 82.1422389 6.16047539 92.9140625 15.109375 C95.28275216 17.00139337 97.68872592 18.63324892 100.25 20.25 C104.71162709 23.16691613 107.99035023 26.41159418 110.53125 31.17578125 C112.72140701 35.2231322 114.21255078 37.46138828 118.6875 38.9375 C120.26616094 39.351575 121.84965079 39.7476893 123.4375 40.125 C151.34699117 48.61457906 168.14405652 63.57141057 183.4375 88.125 C183.87642578 88.80852539 184.31535156 89.49205078 184.76757812 90.19628906 C191.69491767 101.03658284 196.46290657 112.92327611 200.4375 125.125 C200.78554687 126.17429687 201.13359375 127.22359375 201.4921875 128.3046875 C206.73143076 145.24084594 208.6347368 162.99703451 210.68347168 180.54421997 C211.59339449 188.30902295 212.66983158 195.87530766 214.6875 203.4375 C216.63896211 210.96837803 216.80208177 218.36706316 216.8125 226.125 C216.81411133 227.25977783 216.81572266 228.39455566 216.81738281 229.5637207 C216.72801712 236.29742588 216.04187682 242.58194886 214.4375 249.125 C215.72914063 249.2796875 215.72914063 249.2796875 217.046875 249.4375 C229.340388 251.93019388 240.08916114 260.98713727 247.07885742 271.08984375 C260.32847962 291.28605753 261.34710599 312.81648973 256.890625 335.95849609 C253.44260254 352.44435348 244.74810017 367.77098295 230.875 377.625 C219.8060201 384.35168306 208.3535987 385.18117692 195.88671875 382.21875 C189.47337966 380.18507509 184.00227534 376.83485023 178.4375 373.125 C178.20675781 373.67736328 177.97601562 374.22972656 177.73828125 374.79882812 C164.27653125 406.91015668 147.861791 435.05464232 123.4375 460.125 C122.53902344 461.0634375 121.64054687 462.001875 120.71484375 462.96875 C112.53462692 471.36935302 103.52601815 478.45221987 94 485.25 C93.33282959 485.72872559 92.66565918 486.20745117 91.97827148 486.70068359 C91.30610596 487.17328613 90.63394043 487.64588867 89.94140625 488.1328125 C89.28451309 488.59632614 88.62761993 489.05983978 87.95082092 489.53739929 C85.4375 491.125 85.4375 491.125 82.40795898 492.50364685 C76.10400806 495.35569524 76.10400806 495.35569524 72.41917419 500.85791016 C72.13322736 504.22452946 72.21753103 507.40553101 72.43359375 510.77734375 C72.45446548 511.99144424 72.47533722 513.20554474 72.49684143 514.45643616 C72.56575682 518.32912015 72.71148177 522.19272908 72.875 526.0625 C73.08352732 531.15570841 73.21703548 536.24335345 73.30859375 541.33984375 C73.38113876 542.50152573 73.45368378 543.6632077 73.52842712 544.86009216 C73.61774331 549.87820709 73.62997294 552.87140792 70.0710144 556.61277771 C67.27291812 558.67589186 64.47862645 560.44514478 61.4375 562.125 C60.69028687 562.56335175 59.94307373 563.00170349 59.17321777 563.45333862 C57.37582998 564.48899364 55.55672035 565.41362383 53.6875 566.3125 C53.01050049 566.64217773 52.33350098 566.97185547 51.63598633 567.31152344 C30.55968244 577.31450137 8.19685573 580.35762085 -14.875 580.375 C-15.67862976 580.37567474 -16.48225952 580.37634949 -17.3102417 580.37704468 C-29.6178357 580.36063455 -41.52174453 579.89524628 -53.5625 577.125 C-54.68398438 576.87556641 -54.68398438 576.87556641 -55.828125 576.62109375 C-72.33187539 572.83196739 -91.2961181 566.3913819 -103.5625 554.125 C-103.60713775 552.42177389 -103.58217138 550.71667728 -103.52978516 549.01367188 C-103.36991145 542.88135308 -103.29123017 536.75234072 -103.24121094 530.61816406 C-103.20559011 527.96991752 -103.1449755 525.32188171 -103.05859375 522.67480469 C-101.93929813 508.83235348 -101.93929813 508.83235348 -105.97857666 496.0993042 C-109.95883255 492.51530934 -114.57676581 490.89348558 -119.5625 489.125 C-121.99169922 487.63964844 -121.99169922 487.63964844 -123.8515625 486.2265625 C-124.41278809 485.81647949 -124.97401367 485.40639648 -125.55224609 484.98388672 C-126.09187988 484.5767041 -126.63151367 484.16952148 -127.1875 483.75 C-128.11103271 483.05994873 -128.11103271 483.05994873 -129.05322266 482.35595703 C-146.59479107 469.11525119 -162.65992296 453.97832016 -175.5625 436.125 C-176.72652344 434.52591797 -176.72652344 434.52591797 -177.9140625 432.89453125 C-191.16967546 414.19546211 -200.91334315 394.28783059 -209.5625 373.125 C-210.41070313 373.66769531 -211.25890625 374.21039062 -212.1328125 374.76953125 C-224.072466 382.16066343 -234.89984143 385.43215562 -249.09375 382.96875 C-261.17959991 380.02894867 -270.63922236 371.9955175 -277.4375 361.6875 C-278.51053309 359.85130734 -279.55358353 357.99718883 -280.5625 356.125 C-281.25279297 354.86623047 -281.25279297 354.86623047 -281.95703125 353.58203125 C-292.13870781 333.24943847 -293.39143509 307.83599509 -286.34375 286.421875 C-279.32815382 268.72698242 -267.72254149 257.36193379 -250.57226562 249.89208984 C-246.04546028 248.16429315 -241.37059709 247.48924978 -236.5625 247.125 C-236.57410156 246.02800781 -236.58570313 244.93101562 -236.59765625 243.80078125 C-236.60703964 242.34635588 -236.61613925 240.89192865 -236.625 239.4375 C-236.63337891 238.71626953 -236.64175781 237.99503906 -236.65039062 237.25195312 C-236.66365733 234.34654562 -236.65358143 231.57569287 -236.07666016 228.72094727 C-235.53430867 225.98266456 -235.35679508 223.38959445 -235.23828125 220.6015625 C-233.40760854 184.82793941 -223.91131737 153.30644481 -209.97290039 120.47045898 C-209.03962454 118.25673577 -208.11930794 116.03750015 -207.21264648 113.81274414 C-200.08061665 96.31890734 -188.97024746 82.11303406 -175.5234375 69.0546875 C-173.19957159 66.78873725 -171.06475847 64.44542614 -169 61.9375 C-164.49612723 56.64210503 -158.95826832 52.46386524 -153.5625 48.125 C-152.7478125 47.444375 -151.933125 46.76375 -151.09375 46.0625 C-135.68996345 33.32870312 -117.33268912 21.25876682 -97.5625 17.125 C-95.20803049 16.5610325 -92.8587082 15.97840533 -90.50976562 15.3918457 C-88.8771777 14.98447349 -87.24319794 14.58260802 -85.60742188 14.18823242 C-80.92394359 13.04169633 -76.3169869 11.74836648 -71.71025085 10.32180786 C-62.70949703 7.5603185 -53.74431711 5.69642617 -44.44848633 4.23925781 C-42.09981191 3.87105121 -39.75400257 3.48762629 -37.40820312 3.1015625 C-24.8296862 1.05171784 -12.75949773 -0.03919969 0 0 Z " fill="#1C2D32" transform="translate(1039.5625,238.875)"/>
<path d="M0 0 C0.66 0 1.32 0 2 0 C2.13535156 0.81082031 2.27070312 1.62164062 2.41015625 2.45703125 C4.75034193 14.49427376 10.6215217 24.60200489 20 32.625 C20.66 33.19476563 21.32 33.76453125 22 34.3515625 C25.60102596 37.58173362 25.60102596 37.58173362 29.9375 39.375 C33.12178924 40.33993613 34.72128577 42.61529906 37 45 C41.69169086 49.28391474 46.67653752 53.10602921 51.875 56.75 C52.53113281 57.23082031 53.18726563 57.71164062 53.86328125 58.20703125 C58.76770212 61.63916983 63.1407536 63.0094328 69 64 C70.33611465 64.32200392 71.67042384 64.6519826 73 65 C73 65.66 73 66.32 73 67 C79.32994866 69.10998289 87.69585046 68.85008191 94.12109375 66.9453125 C100.36752896 63.80261537 104.12928677 58.63006456 106.37231445 52.18164062 C107.42509846 48.52248936 107.93715685 44.83059879 108.4375 41.0625 C109.39363937 34.55189081 110.4891882 28.10794649 111.9375 21.6875 C112.15587524 20.65798218 112.15587524 20.65798218 112.37866211 19.60766602 C113.4528212 15.0170433 115.33298203 11.8402886 118 8 C118.79682803 4.26774656 118.79682803 4.26774656 119 1 C121.61451093 2.30725547 121.66110581 3.29121968 122.62109375 6.0078125 C122.91693359 6.83023437 123.21277344 7.65265625 123.51757812 8.5 C123.97293945 9.799375 123.97293945 9.799375 124.4375 11.125 C131.67340565 31.47890235 141.41497909 51.60998606 160 64 C160 64.66 160 65.32 160 66 C160.69867187 66.226875 161.39734375 66.45375 162.1171875 66.6875 C165.60766213 68.27665918 168.26345486 70.50239202 171.125 73 C177.12560524 78.4295637 177.12560524 78.4295637 184.6875 80.625 C185.49574219 80.69976562 186.30398438 80.77453125 187.13671875 80.8515625 C188.05904297 80.92503906 188.05904297 80.92503906 189 81 C189.309375 80.38125 189.61875 79.7625 189.9375 79.125 C190.625 77.75 191.3125 76.375 192 75 C192.66 75 193.32 75 194 75 C193.98839844 74.37996094 193.97679687 73.75992188 193.96484375 73.12109375 C193.7446505 51.510699 193.7446505 51.510699 196 47 C202.58998498 47.94142643 206.7605214 51.45055018 211.625 55.8125 C212.56601563 56.64394531 213.50703125 57.47539062 214.4765625 58.33203125 C220.09892391 64.27641645 220.88064126 70.75040768 222.0625 78.5625 C222.23386475 79.63862549 222.40522949 80.71475098 222.58178711 81.82348633 C223.27752426 86.21455983 223.94629984 90.60937389 224.59375 95.0078125 C226.32261219 106.73526101 229.20705241 117.93959496 232.5 129.3125 C232.79672607 130.33899658 233.09345215 131.36549316 233.39916992 132.4230957 C236.22863921 142.63613322 236.22863921 142.63613322 241 152 C242.31073628 161.95819124 239.9406448 172.26371891 238 182 C237.76651855 183.19278564 237.76651855 183.19278564 237.52832031 184.40966797 C230.46695772 219.48392108 215.49379495 254.03810021 193 282 C192.33097656 282.85980469 191.66195313 283.71960938 190.97265625 284.60546875 C181.24202071 296.87295526 170.56695433 308.6091202 158 318 C156.83851254 318.88928487 155.67705604 319.77861018 154.515625 320.66796875 C124.01231392 343.77398633 80.35398449 365.42604727 41 362 C34.25525274 361.06591233 27.62645661 359.54460787 21 358 C20.19868652 357.81808105 19.39737305 357.63616211 18.57177734 357.44873047 C-33.39825747 345.48032772 -79.88073782 311.66044776 -108.1875 266.5625 C-109.47124651 264.3825531 -110.74130994 262.19450973 -112 260 C-112.78504474 258.6796212 -113.57020752 257.35931257 -114.35546875 256.0390625 C-119.31636388 247.55296344 -123.5234326 238.88353593 -127.3125 229.8125 C-127.70872559 228.8639917 -128.10495117 227.9154834 -128.51318359 226.93823242 C-133.54469092 214.57712275 -137.46372143 202.13697391 -140.31298828 189.11816406 C-140.75492914 187.10251869 -141.21060716 185.0903216 -141.66796875 183.078125 C-146.01344738 163.74897277 -146.01344738 163.74897277 -142.8125 157.1875 C-138.06246926 146.74539331 -134.11916958 137.31789712 -136.73046875 125.76953125 C-139.186026 111.6463565 -131.40866069 100.94773796 -124.64282227 89.08447266 C-123.1236391 86.23213797 -121.92206163 83.43120626 -120.796875 80.40625 C-119.41893963 76.76295794 -118.26166484 74.59939441 -114.9375 72.375 C-113.75220703 71.54162109 -113.75220703 71.54162109 -112.54296875 70.69140625 C-111.28419922 69.85416016 -111.28419922 69.85416016 -110 69 C-96.44335615 59.59880692 -86.03700676 50.23343634 -77.4375 36.078125 C-76.82841797 35.07942383 -76.82841797 35.07942383 -76.20703125 34.06054688 C-75.37057347 32.63261329 -74.57881201 31.17791381 -73.82421875 29.70507812 C-72.67468312 27.57637778 -71.65846058 25.76355801 -70 24 C-66.1875 23.5 -66.1875 23.5 -63 24 C-62.65388672 25.64935547 -62.65388672 25.64935547 -62.30078125 27.33203125 C-59.3019772 41.13716726 -55.69379095 52.48104567 -44.6875 62 C-39.34280392 63.98872412 -34.08714273 63.9183428 -28.875 61.625 C-11.87351649 46.10190636 -6.10070315 21.44332256 0 0 Z " fill="#F1C089" transform="translate(976,385)"/>
<path d="M0 0 C3.34111016 1.07608557 6.56644639 2.16297782 9.70703125 3.734375 C10.36662842 4.05809082 11.02622559 4.38180664 11.70581055 4.71533203 C12.40101807 5.05677246 13.09622559 5.39821289 13.8125 5.75 C29.27660346 13.14609412 45.41797333 17.79131445 62 22 C62.68803711 22.18224121 63.37607422 22.36448242 64.08496094 22.55224609 C83.50944397 27.6333511 101.94037818 25.13784733 121 20 C122.01835938 19.75121094 123.03671875 19.50242187 124.0859375 19.24609375 C126.75458275 18.57682783 129.36970031 17.80800056 132 17 C132.70850098 16.78682129 133.41700195 16.57364258 134.14697266 16.35400391 C147.44487385 12.30890342 159.79388598 7.10971546 172.1784668 0.80688477 C174 0 174 0 176 0 C176.27962618 7.82791903 176.47182428 15.65454573 176.60424805 23.48632812 C176.65326343 26.15017263 176.73436783 28.80747585 176.82983398 31.47070312 C176.9637778 35.30421809 177.02575054 39.13331696 177.07421875 42.96875 C177.13099289 44.15239136 177.18776703 45.33603271 177.2462616 46.55554199 C177.25002169 51.62679209 177.21146451 54.72562496 173.62020874 58.50337219 C170.82644343 60.56351806 168.03864924 62.32668859 165 64 C164.25304871 64.43803452 163.50609741 64.87606903 162.73651123 65.32737732 C160.93893785 66.3636474 159.11963829 67.28842286 157.25 68.1875 C156.23450073 68.6820166 156.23450073 68.6820166 155.19848633 69.18652344 C134.12218244 79.18950137 111.75935573 82.23262085 88.6875 82.25 C87.88387024 82.25067474 87.08024048 82.25134949 86.2522583 82.25204468 C73.9446643 82.23563455 62.04075547 81.77024628 50 79 C49.25234375 78.83371094 48.5046875 78.66742187 47.734375 78.49609375 C31.23062461 74.70696739 12.2663819 68.2663819 0 56 C-0.09365006 54.2507128 -0.11744438 52.49763746 -0.11352539 50.74584961 C-0.11344986 49.62476303 -0.11337433 48.50367645 -0.11329651 47.34861755 C-0.10813522 46.1288472 -0.10297394 44.90907684 -0.09765625 43.65234375 C-0.0962413 42.41078018 -0.09482635 41.16921661 -0.09336853 39.89002991 C-0.08870591 36.58394509 -0.07971497 33.27792854 -0.06866455 29.97186279 C-0.05844827 26.6003885 -0.05387045 23.22890717 -0.04882812 19.85742188 C-0.03777395 13.23826225 -0.02101736 6.61913507 0 0 Z " fill="#ECB175" transform="translate(936,737)"/>
<path d="M0 0 C13.99137295 5.14674924 22.41629768 15.60045772 28.89453125 28.6171875 C35.87330496 46.12070644 33.81040277 67.38142666 26.609375 84.4609375 C21.56189562 95.69477495 15.1047853 104.66840856 3.30078125 109.4296875 C-4.45960257 111.55918596 -12.32706674 111.32477667 -19.51953125 107.58203125 C-29.90176566 101.0836619 -29.90176566 101.0836619 -31.37866211 97.49755859 C-31.7641211 94.40920633 -30.92421147 92.31174065 -29.9140625 89.375 C-27.64163623 82.36143512 -26.00923766 75.3494747 -24.59765625 68.1171875 C-24.47008942 67.46709717 -24.34252258 66.81700684 -24.21109009 66.1472168 C-21.52844505 52.27750911 -20.22907504 38.35006788 -19.203125 24.2734375 C-19.15389389 23.60643829 -19.10466278 22.93943909 -19.05393982 22.25222778 C-18.81066717 18.82971775 -18.62180266 15.41369259 -18.50634766 11.984375 C-18.47728836 11.29790894 -18.44822906 10.61144287 -18.41828918 9.9041748 C-18.34074045 8.015417 -18.28358718 6.1258534 -18.2277832 4.23632812 C-17.66015625 1.2421875 -17.66015625 1.2421875 -15.77075195 -0.66040039 C-10.96536263 -3.15898049 -4.98656132 -1.42054757 0 0 Z " fill="#EBB075" transform="translate(1253.66015625,499.7578125)"/>
<path d="M0 0 C2.70289117 2.75556326 2.453337 4.8270788 2.58935547 8.64135742 C2.61970383 9.30956512 2.65005219 9.97777283 2.68132019 10.66622925 C2.74549559 12.10132671 2.80160699 13.53680306 2.85046387 14.97250366 C2.9832813 18.75630756 3.18738591 22.53632395 3.38623047 26.31713867 C3.42444916 27.06652206 3.46266785 27.81590546 3.50204468 28.58799744 C4.29087054 43.50609871 6.99001935 58.08178925 9.86669922 72.71557617 C10.11581055 73.98618896 10.36492188 75.25680176 10.62158203 76.56591797 C11.84181849 82.57474289 13.14302275 88.3361895 15.41357422 94.04248047 C15.97586248 96.35131606 15.68127536 97.6875795 14.86669922 99.90307617 C8.1411988 106.74867481 0.13367577 111.01427826 -9.44580078 111.52807617 C-18.40750966 111.21399759 -25.70703871 107.38444641 -32.38330078 101.52807617 C-44.45954186 88.39295801 -48.30848325 69.77262353 -48.32080078 52.52807617 C-48.33304688 51.6334668 -48.34529297 50.73885742 -48.35791016 49.81713867 C-48.3904958 34.8711921 -42.87689978 21.74035797 -32.43798828 11.02026367 C-25.01939196 4.20521417 -10.27329024 -5.28243226 0 0 Z " fill="#EBB075" transform="translate(810.13330078125,499.096923828125)"/>
<path d="M0 0 C14.88459731 -0.29058867 29.13095589 2.27927106 40.875 12.1015625 C45.06608521 16.51503182 47.93123451 21.98898614 48.4140625 28.1171875 C47.93123451 34.24538886 45.06608521 39.71934318 40.875 44.1328125 C35.17530337 48.8998315 28.76452084 51.69751632 21.7890625 54.1171875 C21.08523438 54.3646875 20.38140625 54.6121875 19.65625 54.8671875 C12.37355355 56.92347826 4.47835718 56.54516653 -3.01318359 56.20800781 C-4.99044755 56.12629906 -6.97027156 56.11351073 -8.94921875 56.109375 C-12.80496665 55.7559692 -14.95977538 55.2517436 -18.2109375 53.1171875 C-21.92120498 48.24408311 -24.04705198 42.45083017 -26.20117188 36.76855469 C-27.19719314 34.15327643 -28.26234826 31.57767429 -29.3515625 29 C-30.01611405 27.39450604 -30.67769703 25.78777926 -31.3359375 24.1796875 C-31.6438623 23.42937256 -31.95178711 22.67905762 -32.26904297 21.90600586 C-33.70014515 18.21216928 -34.56331489 15.88276562 -33.2109375 12.1171875 C-24.4645224 3.81658482 -11.7052434 0.42719866 0 0 Z " fill="#F2B191" transform="translate(876.2109375,581.8828125)"/>
<path d="M0 0 C0.65742187 0.56267578 0.65742187 0.56267578 1.328125 1.13671875 C-1.59716073 12.16279573 -5.9868427 22.50806011 -10.66674805 32.88964844 C-11.51773185 34.79211502 -12.31570829 36.71815625 -13.1015625 38.6484375 C-14.671875 41.13671875 -14.671875 41.13671875 -17.17578125 42.37890625 C-36.62244716 46.40235437 -54.62675798 44.8344749 -71.6171875 33.8828125 C-76.0157922 30.53412601 -78.49984592 26.26212963 -80.421875 21.13671875 C-81.37046329 13.54801241 -79.98429364 8.42313184 -75.671875 2.13671875 C-56.89894393 -17.67063913 -20.26893853 -16.35522073 0 0 Z " fill="#F2B191" transform="translate(1204.671875,593.86328125)"/>
<path d="M0 0 C4.9082959 0.10670208 7.51619087 1.15913675 11.4375 4.125 C15.80835951 7.37632955 20.21496463 9.66168795 25.1875 11.8125 C25.85257568 12.10205566 26.51765137 12.39161133 27.20288086 12.68994141 C49.15865732 21.95888518 76.1803321 20.19679323 97.95703125 11.390625 C103.79836 8.72116025 109.10695227 5.36401017 114.3125 1.625 C117.25147441 -0.15205429 118.64132591 -0.7261998 122 0 C123.875 1.625 123.875 1.625 125 4 C124.82861033 7.63835777 124.54578778 9.43301658 121.98828125 12.08984375 C97.74795974 28.82805116 68.99904824 35.26861599 39.7890625 30.28125 C36.09015309 29.46900991 32.55626317 28.30367821 29 27 C27.88625 26.63777344 26.7725 26.27554688 25.625 25.90234375 C15.62267184 22.42276025 5.9467608 17.05275021 -2 10 C-3 7 -3 7 -3 4 C-1.5625 1.625 -1.5625 1.625 0 0 Z " fill="#8D5938" transform="translate(963,630)"/>
<path d="M0 0 C5.60819066 3.16790011 8.798616 8.01137565 11.1875 13.875 C12.95948876 24.15253481 11.56740819 31.83617298 5.57421875 40.44140625 C1.75462364 44.90465818 -2.84351748 46.65160335 -8.625 47.125 C-14.19012824 46.83665139 -18.15575613 44.19576521 -22.1875 40.5 C-27.95303318 33.45781305 -28.91607721 26.40188883 -28.1875 17.5 C-26.65352959 9.96301154 -23.43508354 4.44168166 -16.9375 0.125 C-11.3803466 -2.74398592 -5.67402867 -2.42553897 0 0 Z " fill="#1B292C" transform="translate(1104.1875,511.5)"/>
<path d="M0 0 C5.60819066 3.16790011 8.798616 8.01137565 11.1875 13.875 C12.95948876 24.15253481 11.56740819 31.83617298 5.57421875 40.44140625 C1.75462364 44.90465818 -2.84351748 46.65160335 -8.625 47.125 C-14.19012824 46.83665139 -18.15575613 44.19576521 -22.1875 40.5 C-27.95303318 33.45781305 -28.91607721 26.40188883 -28.1875 17.5 C-26.65352959 9.96301154 -23.43508354 4.44168166 -16.9375 0.125 C-11.3803466 -2.74398592 -5.67402867 -2.42553897 0 0 Z " fill="#1B292C" transform="translate(960.1875,511.5)"/>
<path d="M0 0 C2.4375 0.8125 2.4375 0.8125 4.4375 2.8125 C4.03649968 8.27907793 2.95508799 13.55000424 1.6875 18.875 C1.42525635 19.97799438 1.42525635 19.97799438 1.15771484 21.10327148 C-0.65284069 28.4988901 -2.99624621 35.642085 -5.5625 42.8125 C-5.98015625 44.01648438 -6.3978125 45.22046875 -6.828125 46.4609375 C-9.85451291 54.99570692 -13.45114706 63.25367983 -17.1875 71.5 C-17.88866943 73.06028931 -17.88866943 73.06028931 -18.60400391 74.65209961 C-20.83025959 79.49307715 -22.89631586 83.86231568 -26.5625 87.8125 C-31.3125 87.0625 -31.3125 87.0625 -33.5625 84.8125 C-34.30313634 80.10777599 -32.24052729 76.75314508 -30.0625 72.75 C-19.69688446 52.81862071 -12.07221025 31.04480101 -7.24731445 9.11914062 C-7.06773193 8.33474609 -6.88814941 7.55035156 -6.703125 6.7421875 C-6.47931152 5.70940674 -6.47931152 5.70940674 -6.25097656 4.65576172 C-4.99660008 1.29741333 -3.63652382 -0.26608711 0 0 Z " fill="#C98A5B" transform="translate(1022.5625,555.1875)"/>
<path d="M0 0 C2.66398794 1.64379308 3.41973969 2.15009069 4.74609375 5.08203125 C4.55859375 7.45703125 4.55859375 7.45703125 3.49609375 9.33203125 C0.61435563 11.00529854 -1.23870871 10.16916952 -4.44140625 9.45703125 C-6.44257181 8.70033228 -8.42268558 7.88582082 -10.37890625 7.01953125 C-17.66137687 3.80526556 -24.13613977 2.0649659 -32.06640625 2.08203125 C-32.85257324 2.08364258 -33.63874023 2.08525391 -34.44873047 2.08691406 C-43.32604026 2.27121807 -51.11807094 4.59611632 -58.94140625 8.76953125 C-62.44140625 10.45703125 -62.44140625 10.45703125 -65.31640625 10.33203125 C-67.44140625 9.45703125 -67.44140625 9.45703125 -69.44140625 7.45703125 C-69.56640625 5.14453125 -69.56640625 5.14453125 -68.44140625 2.45703125 C-63.12045615 -2.24125447 -56.09018734 -4.42534584 -49.44140625 -6.54296875 C-48.36632813 -6.90003906 -47.29125 -7.25710938 -46.18359375 -7.625 C-30.49254932 -11.47405578 -13.74633616 -8.23034895 0 0 Z " fill="#A27E5D" transform="translate(1126.44140625,494.54296875)"/>
<path d="M0 0 C2.66398794 1.64379308 3.41973969 2.15009069 4.74609375 5.08203125 C4.55859375 7.45703125 4.55859375 7.45703125 3.49609375 9.33203125 C0.61435563 11.00529854 -1.23870871 10.16916952 -4.44140625 9.45703125 C-6.44257181 8.70033228 -8.42268558 7.88582082 -10.37890625 7.01953125 C-17.66137687 3.80526556 -24.13613977 2.0649659 -32.06640625 2.08203125 C-32.85257324 2.08364258 -33.63874023 2.08525391 -34.44873047 2.08691406 C-43.32604026 2.27121807 -51.11807094 4.59611632 -58.94140625 8.76953125 C-62.44140625 10.45703125 -62.44140625 10.45703125 -65.31640625 10.33203125 C-67.44140625 9.45703125 -67.44140625 9.45703125 -69.44140625 7.45703125 C-69.56640625 5.14453125 -69.56640625 5.14453125 -68.44140625 2.45703125 C-63.12045615 -2.24125447 -56.09018734 -4.42534584 -49.44140625 -6.54296875 C-48.36632812 -6.90003906 -47.29125 -7.25710938 -46.18359375 -7.625 C-30.49254932 -11.47405578 -13.74633616 -8.23034895 0 0 Z " fill="#A27E5D" transform="translate(986.44140625,494.54296875)"/>
<path d="M0 0 C2.125 0.875 2.125 0.875 3 2.9375 C3.14912338 6.44189951 2.63856939 6.80361767 0.375 9.3125 C-0.17929687 9.91578125 -0.73359375 10.5190625 -1.3046875 11.140625 C-5.94471211 16.2654283 -6.42184274 21.15791635 -6.21484375 27.83984375 C-5.59573479 33.36912719 -4.08332966 37.73245038 -0.0390625 41.65625 C3.04047331 44.06324351 5.99678482 45.81672037 9.5625 47.4375 C12.125 48.875 12.125 48.875 13.125 51.4375 C13.125 52.241875 13.125 53.04625 13.125 53.875 C12.465 54.535 11.805 55.195 11.125 55.875 C4.44813404 55.71214961 -1.26661714 52.21167631 -6.125 47.859375 C-13.73176525 39.86108507 -15.60411793 32.40162308 -15.35546875 21.44921875 C-14.35870277 14.03425233 -10.73993698 7.62986386 -5.8125 2.0625 C-2.875 -0.125 -2.875 -0.125 0 0 Z " fill="#C88755" transform="translate(798.875,534.125)"/>
<path d="M0 0 C4.07115527 0.38060884 5.92650732 1.41753988 8.5625 4.5 C15.59416091 13.18978182 17.09360498 20.83995883 16 32 C14.11558902 40.55441242 8.96088947 46.96955964 2 52 C-1.70948026 54.3483972 -4.54151433 56.12154047 -9 55.75 C-9.66 55.5025 -10.32 55.255 -11 55 C-11.33 53.35 -11.66 51.7 -12 50 C-11.360625 49.62875 -10.72125 49.2575 -10.0625 48.875 C-7.48203493 47.29512343 -4.91825773 45.70130392 -2.375 44.0625 C-1.61960937 43.57910156 -0.86421875 43.09570312 -0.0859375 42.59765625 C4.00216582 39.46650596 5.84538085 35.97374402 7 31 C7.89639558 22.73193022 7.07659619 16.71143225 2 10 C0.824375 8.88625 0.824375 8.88625 -0.375 7.75 C-0.91125 7.1725 -1.4475 6.595 -2 6 C-1.7 1.7 -1.7 1.7 0 0 Z " fill="#C88755" transform="translate(1248,534)"/>
<path d="M0 0 C1.38562071 0.62272059 2.76026839 1.27024193 4.125 1.9375 C19.11897989 8.09694601 36.0846053 6.88362954 50.8359375 1.15625 C53.59589477 0.14767302 56.08958858 -0.62977099 59 -1 C59.99 -0.505 59.99 -0.505 61 0 C60.98046875 2.296875 60.98046875 2.296875 60 5 C57.37250264 6.36981408 55.09298376 7.33384415 52.3125 8.25 C51.60416016 8.50523437 50.89582031 8.76046875 50.16601562 9.0234375 C36.05289854 13.97540841 18.07710237 14.02907169 4 9 C3.04222656 8.69835937 2.08445312 8.39671875 1.09765625 8.0859375 C-4.06958724 6.30312979 -4.06958724 6.30312979 -6 5 C-6.76953125 2.3671875 -6.76953125 2.3671875 -7 0 C-4.27781893 -1.36109054 -2.90889059 -0.75527575 0 0 Z " fill="#DFA975" transform="translate(998,672)"/>
<path d="M0 0 C0.66 0 1.32 0 2 0 C5.92571111 5.93062785 8.4384284 10.81994561 7 18 C4.40151955 26.73415943 -1.21553442 31.594921 -9 36 C-10.9809884 36.72119998 -12.97771723 37.40433497 -15 38 C-14.58488159 37.07272095 -14.58488159 37.07272095 -14.16137695 36.12670898 C-8.86279528 24.24487391 -3.74398488 12.47338119 0 0 Z " fill="#75595B" transform="translate(1205,596)"/>
<path d="M0 0 C2.12583894 2.65889071 3.60632093 5.10154778 4.83203125 8.2734375 C5.31349609 9.50175293 5.31349609 9.50175293 5.8046875 10.75488281 C6.13726563 11.61952148 6.46984375 12.48416016 6.8125 13.375 C7.51553048 15.16981851 8.21996792 16.96408652 8.92578125 18.7578125 C9.27334473 19.64243164 9.6209082 20.52705078 9.97900391 21.43847656 C12.19960246 27.00961956 14.59821953 32.50501742 17 38 C8.64060095 35.53773224 1.0723463 30.86410422 -3.1875 23.0625 C-5.16334803 18.32914977 -6.14264694 14.06280492 -5 9 C-3.59153084 5.81394562 -1.92125471 2.90246693 0 0 Z " fill="#74595A" transform="translate(841,596)"/>
<path d="M0 0 C2 3 2 3 1.8125 6.0625 C1 9 1 9 -2 11 C-5.0625 10.8125 -5.0625 10.8125 -8 10 C-10.15502531 6.76746204 -10.46856135 5.74849077 -10 2 C-7.59684073 -2.24086929 -4.21511384 -1.07293807 0 0 Z " fill="#CACDCE" transform="translate(1108,521)"/>
<path d="M0 0 C2 3 2 3 1.8125 6.0625 C1 9 1 9 -2 11 C-5.0625 10.8125 -5.0625 10.8125 -8 10 C-10.15502531 6.76746204 -10.46856135 5.74849077 -10 2 C-7.59684073 -2.24086929 -4.21511384 -1.07293807 0 0 Z " fill="#CACDCE" transform="translate(964,521)"/>
<path d="M0 0 C0.66 0 1.32 0 2 0 C2.33 2.64 2.66 5.28 3 8 C1.35 8.33 -0.3 8.66 -2 9 C-1.34 6.03 -0.68 3.06 0 0 Z " fill="#BE9D75" transform="translate(976,385)"/>
<path d="M0 0 C0.66 0.33 1.32 0.66 2 1 C0.02 3.97 -1.96 6.94 -4 10 C-4.33 9.34 -4.66 8.68 -5 8 C-3.62292893 4.85240898 -2.43840236 2.43840236 0 0 Z " fill="#BE9D75" transform="translate(860,458)"/>
<path d="M0 0 C3.44216672 2.6598561 3.99504674 5.90288286 5 10 C2.9754262 8.06745228 1.57894208 6.36841312 0 4 C0 2.68 0 1.36 0 0 Z " fill="#A58C6B" transform="translate(1104,410)"/>
</svg>
